<svg aria-hidden="true" style="position: absolute; width: 0; height: 0; overflow: hidden;" version="1.1"
     xmlns="http://www.w3.org/2000/svg" xmlns:xlink="http://www.w3.org/1999/xlink">
  <defs>
    <symbol id="about" viewBox="0 0 24 24">
      <title>about</title>
      <g stroke="none" stroke-width="1" fill="none" fill-rule="evenodd">
        <circle id="Oval" stroke-opacity="0.595504982" stroke="#0EC269" stroke-width="2.25" cx="10" cy="10" r="8.875"></circle>
        <rect id="Rectangle-8" fill="#0EC269" x="9" y="9" width="2" height="6"></rect>
        <circle id="Oval-2" fill="#0EC269" cx="10" cy="6" r="1.5"></circle>
      </g>
    </symbol>
    <symbol id="github" viewBox="0 0 24 24">
      <title>github</title>
      <path
        d="M12 0.297c-6.63 0-12 5.373-12 12 0 5.303 3.438 9.8 8.205 11.385 0.6 0.113 0.82-0.258 0.82-0.577 0-0.285-0.010-1.040-0.015-2.040-3.338 0.724-4.042-1.61-4.042-1.61-0.546-1.385-1.335-1.755-1.335-1.755-1.087-0.744 0.084-0.729 0.084-0.729 1.205 0.084 1.838 1.236 1.838 1.236 1.070 1.835 2.809 1.305 3.495 0.998 0.108-0.776 0.417-1.305 0.76-1.605-2.665-0.3-5.466-1.332-5.466-5.93 0-1.31 0.465-2.38 1.235-3.22-0.135-0.303-0.54-1.523 0.105-3.176 0 0 1.005-0.322 3.3 1.23 0.96-0.267 1.98-0.399 3-0.405 1.020 0.006 2.040 0.138 3 0.405 2.28-1.552 3.285-1.23 3.285-1.23 0.645 1.653 0.24 2.873 0.12 3.176 0.765 0.84 1.23 1.91 1.23 3.22 0 4.61-2.805 5.625-5.475 5.92 0.42 0.36 0.81 1.096 0.81 2.22 0 1.606-0.015 2.896-0.015 3.286 0 0.315 0.21 0.69 0.825 0.57 4.801-1.574 8.236-6.074 8.236-11.369 0-6.627-5.373-12-12-12z"></path>
    </symbol>
    <symbol id="sad" viewBox="0 0 24 24">
      <title>sad</title>
      <g stroke="none" stroke-width="1" fill="none" fill-rule="evenodd">
        <circle id="Oval" stroke="#DE4B2C" stroke-width="1.5" cx="10" cy="10" r="9.25"></circle>
        <circle id="Oval-2" fill="#DE4B2C" cx="7.5" cy="7.5" r="1.25"></circle>
        <circle id="Oval-2" fill="#DE4B2C" cx="12.5" cy="7.5" r="1.25"></circle>
        <path d="M6.5,13 C8.6875,11.6666667 11.3125,11.6666667 13.5,13" id="Path-2" stroke="#DE4B2C" stroke-width="1.5"></path>
      </g>
    </symbol>
    <symbol id="sad2" viewBox="0 0 24 24">
      <title>sad2</title>
      <g stroke="none" stroke-width="1" fill="none" fill-rule="evenodd">
        <circle id="Oval" stroke="#DE4B2C" stroke-width="2.25" cx="10" cy="10" r="8.875"></circle>
        <circle id="Oval-2" fill="#DE4B2C" cx="7.5" cy="7.5" r="1.5"></circle>
        <circle id="Oval-2" fill="#DE4B2C" cx="12.5" cy="7.5" r="1.5"></circle>
        <path d="M6.5,13 C8.6875,11.6666667 11.3125,11.6666667 13.5,13" id="Path-2" stroke="#DE4B2C" stroke-width="2.25"></path>
      </g>
    </symbol>
    <symbol id="smile" viewBox="0 0 24 24">
      <title>smile</title>
      <g id="smile-smile" stroke="none" stroke-width="1" fill="none" fill-rule="evenodd">
        <circle id="Oval" stroke="#76C526" stroke-width="1.5" cx="10" cy="10" r="9.25"></circle>
        <circle id="Oval-2" fill="#7FC834" cx="7.5" cy="7.5" r="1.25"></circle>
        <circle id="Oval-2" fill="#7FC834" cx="12.5" cy="7.5" r="1.25"></circle>
        <path d="M6.5,13 C8.6875,11.6666667 11.3125,11.6666667 13.5,13" id="Path-2" stroke="#76C526" stroke-width="1.5" transform="translate(10.000000, 12.500000) scale(1, -1) translate(-10.000000, -12.500000) "></path>
      </g>
    </symbol>
    <symbol id="smile2" viewBox="0 0 24 24">
      <title>smile2</title>
      <g stroke="none" stroke-width="1" fill="none" fill-rule="evenodd">
        <g stroke="#76C526" stroke-width="2.25">
          <g>
            <circle id="Oval" cx="10" cy="10" r="8.875"></circle>
            <path d="M6.5,13 C8.6875,11.6666667 11.3125,11.6666667 13.5,13" id="Path-2" transform="translate(10.000000, 12.500000) scale(1, -1) translate(-10.000000, -12.500000) "></path>
          </g>
        </g>
        <circle id="Oval-2" fill="#76C526" cx="7.5" cy="7.5" r="1.5"></circle>
        <circle id="Oval-2" fill="#76C526" cx="12.5" cy="7.5" r="1.5"></circle>
      </g>
    </symbol>
    <symbol id="mail" viewBox="0 0 24 24">
      <title>mail</title>
      <g stroke="none" stroke-width="1" fill="none" fill-rule="evenodd">
        <g fill="#000000">
          <polygon points="12 3 12 10 0 10 0 3 6 7"></polygon>
          <polygon points="0 2 12 2 6 6"></polygon>
        </g>
      </g>
    </symbol>
    <symbol id="fb" viewBox="0 0 24 24">
      <path d="M15.117 0H.883C.395 0 0 .395 0 .883v14.234c0 .488.395.883.883.883h7.663V9.804H6.46V7.39h2.086V5.607c0-2.066 1.262-3.19 3.106-3.19.883 0 1.642.064 1.863.094v2.16h-1.28c-1 0-1.195.48-1.195 1.18v1.54h2.39l-.31 2.42h-2.08V16h4.077c.488 0 .883-.395.883-.883V.883C16 .395 15.605 0 15.117 0z"></path>
    </symbol>
    <symbol id="tw" viewBox="0 0 24 24">
      <path d="M15.96 3.42c-.04.153-.144.31-.237.414l-.118.058v.118l-.59.532-.237.295c-.05.036-.398.21-.413.237V6.49h-.06v.473h-.058v.294h-.058v.296h-.06v.235h-.06v.237h-.058c-.1.355-.197.71-.295 1.064h-.06v.116h-.06c-.02.1-.04.197-.058.296h-.06c-.04.118-.08.237-.118.355h-.06c-.038.118-.078.236-.117.353l-.118.06-.06.235-.117.06v.116l-.118.06v.12h-.06c-.02.057-.038.117-.058.175l-.118.06v.117c-.06.04-.118.08-.177.118v.118l-.237.177v.118l-.59.53-.532.592h-.117c-.06.078-.118.156-.177.236l-.177.06-.06.117h-.118l-.06.118-.176.06v.058h-.118l-.06.118-.353.12-.06.117c-.078.02-.156.04-.235.058v.06c-.118.038-.236.078-.354.118v.058H8.76v.06h-.12v.06h-.176v.058h-.118v.06H8.17v.058H7.99v.06l-.413.058v.06h-.237c-.667.22-1.455.293-2.36.293h-.886v-.058h-.53v-.06H3.27v-.06h-.295v-.06H2.68v-.057h-.177v-.06h-.236v-.058H2.09v-.06h-.177v-.058h-.177v-.06H1.56v-.058h-.12v-.06l-.294-.06v-.057c-.118-.04-.236-.08-.355-.118v-.06H.674v-.058H.555v-.06H.437v-.058H.32l-.06-.12H.142v-.058c-.13-.08-.083.026-.177-.118H1.56v-.06c.294-.04.59-.077.884-.117v-.06h.177v-.058h.237v-.06h.118v-.06h.177v-.057h.118v-.06h.177v-.058l.236-.06v-.058l.236-.06c.02-.038.04-.078.058-.117l.237-.06c.02-.04.04-.077.058-.117h.118l.06-.118h.118c.036-.025.047-.078.118-.118V12.1c-1.02-.08-1.84-.54-2.303-1.183-.08-.058-.157-.118-.236-.176v-.117l-.118-.06v-.117c-.115-.202-.268-.355-.296-.65.453.004.987.008 1.354-.06v-.06c-.254-.008-.47-.08-.65-.175v-.058H2.32v-.06c-.08-.02-.157-.04-.236-.058l-.06-.118h-.117l-.118-.178h-.12c-.077-.098-.156-.196-.235-.294l-.118-.06v-.117l-.177-.12c-.35-.502-.6-1.15-.59-2.006h.06c.204.234.948.377 1.357.415v-.06c-.257-.118-.676-.54-.827-.768V5.9l-.118-.06c-.04-.117-.08-.236-.118-.354h-.06v-.118H.787c-.04-.196-.08-.394-.118-.59-.06-.19-.206-.697-.118-1.005h.06V3.36h.058v-.177h.06v-.177h.057V2.83h.06c.04-.118.078-.236.117-.355h.118v.06c.12.097.237.196.355.295v.118l.118.058c.08.098.157.197.236.295l.176.06.354.413h.118l.177.236h.118l.06.117h.117c.04.06.08.118.118.177h.118l.06.118.235.06.06.117.356.12.06.117.53.176v.06h.118v.058l.236.06v.06c.118.02.236.04.355.058v.06h.177v.058h.177v.06h.176v.058h.236v.06l.472.057v.06l1.417.18v-.237c-.1-.112-.058-.442-.057-.65 0-.573.15-.99.354-1.358v-.117l.118-.06.06-.235.176-.118v-.118c.14-.118.276-.236.414-.355l.06-.117h.117l.12-.177.235-.06.06-.117h.117v-.058H9.7v-.058h.177v-.06h.177v-.058h.177v-.06h.296v-.058h1.063v.058h.294v.06h.177v.058h.178v.06h.177v.058h.118v.06h.118l.06.117c.08.018.158.038.236.058.04.06.08.118.118.177h.118l.06.117c.142.133.193.163.472.178.136-.12.283-.05.472-.118v-.06h.177v-.058h.177v-.06l.236-.058v-.06h.177l.59-.352v.176h-.058l-.06.295h-.058v.117h-.06v.118l-.117.06v.118l-.177.118v.117l-.118.06-.354.412h-.117l-.177.236h.06c.13-.112.402-.053.59-.117l1.063-.353z"></path>
    </symbol>
    <symbol id="tg" viewBox="0 0 24 24">
      <path d="M6,11.960784l-1,-3l11,-8l-15.378,5.914c0,0 -0.672,0.23 -0.619,0.655c0.053,0.425 0.602,0.619 0.602,0.619l3.575,1.203l1.62,5.154l2.742,-2.411l-0.007,-0.005l3.607,2.766c0.973,0.425 1.327,-0.46 1.327,-0.46l2.531,-13.435l-10,11zz"></path>
    </symbol>
  </defs>
</svg>
